<svg width="311" height="36" viewBox="0 0 311 36" fill="none" xmlns="http://www.w3.org/2000/svg">
<path d="M88.3113 3.86632C76.367 4.17239 76.9796 3.86632 70.8543 3.86632C54.9286 3.86632 53.7035 4.12776 35.0215 5.39763C26.6414 6.50342 14.1959 7.23532 6.84518 10.6041C1.94526 13.6668 -0.572355 19.3105 3.78268 24.386C7.76411 27.7549 11.4395 28.0612 20.3212 28.98C38.0458 30.8136 56.623 32.0607 74.4535 32.8821C112.049 34.614 149.597 34.8346 187.155 34.343C209.973 34.0444 232.763 33.4549 255.552 32.824C270.838 32.4008 278.659 31.5048 294.103 29.382C305.007 27.8834 308.593 25.0116 309.127 19.1795C309.127 14.8918 304.855 12.1257 298.391 10.0841C288.068 6.82339 258.91 3.91876 249.099 3.86648C225.211 2.33515 211.429 2.02892 186.622 2.02892C153.852 1.11013 152.765 1.92996 117.698 1.13179C111.751 0.996419 54.8611 1.46233 49.1098 2.94762" stroke="#474747" stroke-width="1.83758" stroke-linecap="round"/>
</svg>
