<svg width="506" height="59" viewBox="0 0 506 59" fill="none" xmlns="http://www.w3.org/2000/svg">
<path d="M143.5 6.49995C124 6.99964 125 6.49995 115 6.49995C88.9999 6.49995 86.9999 6.92677 56.4999 8.99995C42.8187 10.8052 22.5005 12.0001 10.4998 17.4999C2.50025 22.5001 -1.60996 31.7138 5.5 40C12 45.5 18.0005 46.0001 32.5005 47.5001C61.4373 50.4936 91.7662 52.5296 120.876 53.8706C182.254 56.6981 243.554 57.0582 304.871 56.2556C342.122 55.7681 379.33 54.8058 416.535 53.7757C441.49 53.0848 454.259 51.622 479.472 48.1564C497.273 45.7097 503.129 41.0213 504 31.4999C504 24.4999 497.025 19.9841 486.473 16.651C469.619 11.3276 422.017 6.58557 405.999 6.50021C367 4.0002 344.5 3.50025 304 3.50025C250.5 2.00025 248.725 3.33869 191.476 2.03561C181.766 1.8146 88.8897 2.57524 79.5003 5.00009" stroke="#474747" stroke-width="3" stroke-linecap="round"/>
</svg>
