<svg width="96" height="69" viewBox="0 0 96 69" fill="none" xmlns="http://www.w3.org/2000/svg">
<g id="SEO icone">
<circle id="Ellipse 2" cx="34.3285" cy="34.6899" r="33.9369" fill="#EDEDED"/>
<g id="Icone">
<path id="Vector 4" d="M16.334 28.7828V48.8842H52.2845L51.8979 28.7828" stroke="#474747" stroke-width="2"/>
<g id="Group 8">
<mask id="mask0_610_336" style="mask-type:alpha" maskUnits="userSpaceOnUse" x="9" y="20" width="35" height="12">
<rect id="Rectangle 26" x="10.075" y="20.665" width="32.9312" height="10.0507" fill="#D9D9D9" stroke="#474747" stroke-width="0.773128"/>
</mask>
<g mask="url(#mask0_610_336)">
<rect id="Rectangle 25" x="13.0464" y="21.4381" width="37.2466" height="7.73128" stroke="#474747" stroke-width="2.31939"/>
</g>
</g>
<g id="Lignes">
<line id="Line 7" x1="20.9727" y1="33.8081" x2="47.259" y2="33.8081" stroke="#474747" stroke-width="0.773128"/>
<line id="Line 8" x1="20.9727" y1="36.9008" x2="47.259" y2="36.9008" stroke="#474747" stroke-width="0.773128"/>
<line id="Line 9" x1="20.9727" y1="39.9933" x2="47.259" y2="39.9933" stroke="#474747" stroke-width="0.773128"/>
</g>
<g id="Loupe">
<path id="Ellipse 8" d="M67.1544 31.4658C64.5526 38.5866 56.6803 42.2473 49.5751 39.6513C42.47 37.0552 38.812 29.1816 41.4138 22.0608C44.0156 14.94 51.8879 11.2792 58.9931 13.8753C66.0982 16.4713 69.7562 24.345 67.1544 31.4658Z" fill="white" stroke="#579EB0" stroke-width="5.88057"/>
<line id="Line 6" y1="-2.94029" x2="26.3175" y2="-2.94029" transform="matrix(0.782331 0.622863 -0.622331 0.782754 63.1484 38.8712)" stroke="#579EB0" stroke-width="5.88057"/>
</g>
</g>
</g>
</svg>
