<svg width="163" height="144" viewBox="0 0 163 144" fill="none" xmlns="http://www.w3.org/2000/svg">
<g filter="url(#filter0_di_655_1246)">
<circle cx="71.5753" cy="67.5753" r="67.5753"/>
<path d="M35.5566 61.1343V100.922H106.716L105.95 61.1343" stroke="#474747" stroke-width="3.7"/>
<mask id="mask0_655_1246" style="mask-type:alpha" maskUnits="userSpaceOnUse" x="22" y="44" width="68" height="22">
<rect x="24.2553" y="46.1513" width="63.0131" height="17.7242" fill="#D9D9D9" stroke="#474747" stroke-width="3.7"/>
</mask>
<g mask="url(#mask0_655_1246)">
<rect x="28.6068" y="46.1513" width="74.6154" height="16.1939" rx="8.09696" stroke="#474747" stroke-width="3.7"/>
</g>
<line x1="44.7383" y1="70.0063" x2="96.7685" y2="70.0063" stroke="#579EB0" stroke-width="3.68074"/>
<line x1="44.7383" y1="77.2031" x2="96.7685" y2="77.2031" stroke="#474747" stroke-width="1.5303"/>
<line x1="44.7383" y1="83.3242" x2="96.7685" y2="83.3242" stroke="#474747" stroke-width="1.5303"/>
<g clip-path="url(#clip0_655_1246)">
<path d="M111.775 73.3445L111.244 73.0185L110.713 73.3445L83.2744 90.2067L90.5626 58.3971L90.6973 57.8096L90.2452 57.4109L65.9602 35.9902L97.9193 33.2295L98.5315 33.1766L98.7676 32.6094L111.244 2.63688L123.72 32.6094L123.957 33.1766L124.569 33.2295L156.528 35.9902L132.243 57.4109L131.791 57.8096L131.925 58.3971L139.214 90.2067L111.775 73.3445Z" fill="#579EB0" stroke="white" stroke-width="2.02669"/>
</g>
</g>
<defs>
<filter id="filter0_di_655_1246" x="0" y="0" width="162.52" height="143.15" filterUnits="userSpaceOnUse" color-interpolation-filters="sRGB">
<feFlood flood-opacity="0" result="BackgroundImageFix"/>
<feColorMatrix in="SourceAlpha" type="matrix" values="0 0 0 0 0 0 0 0 0 0 0 0 0 0 0 0 0 0 127 0" result="hardAlpha"/>
<feOffset dy="4"/>
<feGaussianBlur stdDeviation="2"/>
<feComposite in2="hardAlpha" operator="out"/>
<feColorMatrix type="matrix" values="0 0 0 0 0 0 0 0 0 0 0 0 0 0 0 0 0 0 0.25 0"/>
<feBlend mode="normal" in2="BackgroundImageFix" result="effect1_dropShadow_655_1246"/>
<feBlend mode="normal" in="SourceGraphic" in2="effect1_dropShadow_655_1246" result="shape"/>
<feColorMatrix in="SourceAlpha" type="matrix" values="0 0 0 0 0 0 0 0 0 0 0 0 0 0 0 0 0 0 127 0" result="hardAlpha"/>
<feOffset dy="4"/>
<feGaussianBlur stdDeviation="2"/>
<feComposite in2="hardAlpha" operator="arithmetic" k2="-1" k3="1"/>
<feColorMatrix type="matrix" values="0 0 0 0 1 0 0 0 0 1 0 0 0 0 1 0 0 0 0.25 0"/>
<feBlend mode="normal" in2="shape" result="effect2_innerShadow_655_1246"/>
</filter>
<clipPath id="clip0_655_1246">
<rect width="103.641" height="105.525" fill="white" transform="translate(54.8789)"/>
</clipPath>
</defs>
</svg>
