<svg width="177" height="144" viewBox="0 0 177 144" fill="none" xmlns="http://www.w3.org/2000/svg">
<g filter="url(#filter0_d_655_1218)">
<circle cx="71.5753" cy="67.9893" r="67.5753"/>
<path d="M35.9355 56.5649V96.8329H107.953L107.179 56.5649" stroke="#474747" stroke-width="3.7"/>
<mask id="mask0_655_1218" style="mask-type:alpha" maskUnits="userSpaceOnUse" x="22" y="39" width="69" height="23">
<rect x="24.474" y="41.3783" width="63.8182" height="17.9828" fill="#D9D9D9" stroke="#474747" stroke-width="3.7"/>
</mask>
<g mask="url(#mask0_655_1218)">
<rect x="28.8773" y="41.3783" width="75.5605" height="16.434" stroke="#474747" stroke-width="3.7"/>
</g>
<line x1="45.2285" y1="66.6319" x2="97.8867" y2="66.6319" stroke="#474747" stroke-width="1.54877"/>
<line x1="45.2285" y1="72.8272" x2="97.8867" y2="72.8272" stroke="#474747" stroke-width="1.54877"/>
<line x1="45.2285" y1="79.0225" x2="97.8867" y2="79.0225" stroke="#474747" stroke-width="1.54877"/>
<path d="M118.306 54.0445C113.203 68.389 97.547 76.0346 83.4295 71.3142C69.3121 66.5938 61.8451 51.2164 66.9475 36.8719C72.0499 22.5275 87.7063 14.8818 101.824 19.6022C115.941 24.3226 123.408 39.7 118.306 54.0445Z" fill="white" stroke="#579EB0" stroke-width="11.7803"/>
<line y1="-5.89013" x2="53.4212" y2="-5.89013" transform="matrix(0.77207 0.614693 -0.605173 0.809584 110.717 68.7744)" stroke="#579EB0" stroke-width="11.7803"/>
</g>
<defs>
<filter id="filter0_d_655_1218" x="0" y="0.414062" width="163.091" height="143.15" filterUnits="userSpaceOnUse" color-interpolation-filters="sRGB">
<feFlood flood-opacity="0" result="BackgroundImageFix"/>
<feColorMatrix in="SourceAlpha" type="matrix" values="0 0 0 0 0 0 0 0 0 0 0 0 0 0 0 0 0 0 127 0" result="hardAlpha"/>
<feOffset dy="4"/>
<feGaussianBlur stdDeviation="2"/>
<feComposite in2="hardAlpha" operator="out"/>
<feColorMatrix type="matrix" values="0 0 0 0 0 0 0 0 0 0 0 0 0 0 0 0 0 0 0.25 0"/>
<feBlend mode="normal" in2="BackgroundImageFix" result="effect1_dropShadow_655_1218"/>
<feBlend mode="normal" in="SourceGraphic" in2="effect1_dropShadow_655_1218" result="shape"/>
</filter>
</defs>
</svg>
