<svg width="47" height="46" viewBox="0 0 47 46" fill="none" xmlns="http://www.w3.org/2000/svg">
<path d="M36.9701 3.42694H10.0216C6.92296 3.42694 4.3877 5.96221 4.3877 9.06087V36.0122C4.3877 39.1108 6.92296 41.6461 10.0216 41.6461H36.9729C40.0716 41.6461 42.6068 39.1108 42.6068 36.0122V9.06087C42.604 5.96221 40.0716 3.42694 36.9701 3.42694ZM36.6081 23.826H32.0728V40.2348H25.2867V23.826H21.8923V18.1695H25.2867V14.7751C25.2867 10.1609 27.2023 7.41576 32.6531 7.41576H37.1842V13.0708H34.3503C32.232 13.0708 32.0911 13.8638 32.0911 15.3385L32.0728 18.1695H37.2067L36.6081 23.826Z" fill="white"/>
</svg>
