<svg xmlns="http://www.w3.org/2000/svg" width="30" height="30" viewBox="0 0 30 30" fill="none">
<path d="M23.6057 2.67468H6.22377C4.22511 2.67468 2.58984 4.30995 2.58984 6.30861V23.6924C2.58984 25.6911 4.22511 27.3263 6.22377 27.3263H23.6076C25.6062 27.3263 27.2415 25.6911 27.2415 23.6924V6.30861C27.2397 4.30995 25.6062 2.67468 23.6057 2.67468ZM23.3723 15.8322H20.447V26.416H16.0699V15.8322H13.8805V12.1838H16.0699V9.99432C16.0699 7.01813 17.3054 5.2475 20.8212 5.2475H23.7438V8.89505H21.916C20.5496 8.89505 20.4588 9.40653 20.4588 10.3577L20.447 12.1838H23.7584L23.3723 15.8322Z" fill="#579EB0"/>
</svg>