<?xml version="1.0" encoding="utf-8"?>
<!-- Generator: Adobe Illustrator 22.0.0, SVG Export Plug-In . SVG Version: 6.00 Build 0)  -->
<svg version="1.1" id="图层_1" xmlns="http://www.w3.org/2000/svg" xmlns:xlink="http://www.w3.org/1999/xlink" x="0px" y="0px"
	 viewBox="0 0 790 789.9" style="enable-background:new 0 0 790 789.9;" xml:space="preserve">
<style type="text/css">
	.st0{fill:#AA2022;}
	.st1{fill:#FFFFFF;}
</style>
<g>
	<g>
		<path d="M298.1,175.9c34.1,6.4,66.6,18.1,99.1,29.8c28.3,10.2,53.6,26.3,79.1,42c32.9,20.4,61.2,46.2,85.5,75.9
			c20.4,24.8,39.2,51,55.5,78.9c14.1,24.1,25.6,49.6,39.2,73.9c1.5,2.8,2.3,7.1,6.6,6.6c4.1-0.5,4.4-4.6,5.6-7.7
			c1.1-3.2,1.7-6.5,3-9.6c6.6-16.8,15.2-31.2,35.3-35c12.6-2.4,25-5.3,37.8-5.2c9.2,0.1,14,4.8,14.1,14.5
			c0.1,10.2-1.3,20.1-2.5,30.1c-3.9,32.7-8.4,65.3-11,98.1c-1.5,19.1-4,38.1-4.6,57.2c-0.4,13.9-2.5,27.3-5.4,40.9
			c-3,14.5-12.2,22.7-24.3,28.9c-24.3,12.6-50.5,13-76.9,11.3c-8.2-0.5-14.5-5.4-20.4-10.4c-32.1-27.6-63.4-56.2-96-83.1
			c-20.9-17.2-43.3-32.7-65.8-47.8c-23.4-15.7-47.7-30.3-73.5-41.8c-3.4-1.5-6.8-2.7-10.2-4.2c-6-2.6-9.9-6.9-10-13.8
			c-0.1-6.6,3.4-10.4,8.9-13.4c9.3-5,19.6-7.2,29.6-9.9c25.6-6.7,51.6-10.4,77.5-2.1c18.7,5.9,34.9,17.2,52.4,25.6
			c9.4,4.5,18.2,10.1,27.4,15.1c2,1.1,4.2,3.2,6.5,1.5c2.6-1.9,1.8-5,1.1-7.5c-1.1-3.5-2.6-6.9-4.4-10.1
			c-25.7-46-55.3-89-91.3-127.2c-18.1-19.2-33.3-35.2-56.1-52.5c-20-16-39.6-28.3-84.6-50.6c-22.1-9.9-59.9-26.4-90.7-34.6
			c-73-20.4-123-12.8-144-11.9c-10.4,0.5-25.2,3-42.9,4c-6.4,0.4-13.5,0.5-16.3-7.1c-3-8.1,1.9-13,7.7-17.9
			c23.2-19.8,50.4-29.8,79.7-36.7C182.2,155.4,272.4,171.1,298.1,175.9z"/>
	</g>
</g>
</svg>
