<svg width="124" height="124" viewBox="0 0 124 124" fill="none" xmlns="http://www.w3.org/2000/svg">
<path d="M121 62C121 94.5848 94.5848 121 62 121C29.4152 121 3 94.5848 3 62C3 29.4152 29.4152 3 62 3C94.5848 3 121 29.4152 121 62Z" fill="#4A94A7" stroke="#579EB0" stroke-width="6"/>
<path d="M90.1637 66.392C90.1637 65.0853 90.3691 63.928 90.7797 62.92C91.2277 61.912 91.7691 61.016 92.4037 60.232C93.0757 59.448 93.7851 58.72 94.5317 58.048C95.2784 57.376 95.9691 56.7413 96.6037 56.144C97.2757 55.5093 97.8171 54.856 98.2277 54.184C98.6757 53.512 98.8997 52.7653 98.8997 51.944C98.8997 50.6 98.3397 49.5173 97.2197 48.696C96.1371 47.8747 94.6811 47.464 92.8517 47.464C91.0971 47.464 89.5291 47.8373 88.1477 48.584C86.7664 49.2933 85.6277 50.3013 84.7317 51.608L77.9557 47.632C79.4491 45.3547 81.5211 43.544 84.1717 42.2C86.8224 40.8187 90.0331 40.128 93.8037 40.128C96.6037 40.128 99.0677 40.5387 101.196 41.36C103.324 42.144 104.985 43.3013 106.18 44.832C107.412 46.3627 108.028 48.248 108.028 50.488C108.028 51.944 107.804 53.232 107.356 54.352C106.908 55.472 106.329 56.4427 105.62 57.264C104.91 58.0853 104.145 58.8507 103.324 59.56C102.54 60.2693 101.793 60.96 101.084 61.632C100.374 62.304 99.7771 63.0133 99.2917 63.76C98.8437 64.5067 98.6197 65.384 98.6197 66.392H90.1637ZM94.4197 80.448C92.8517 80.448 91.5637 79.944 90.5557 78.936C89.5477 77.928 89.0437 76.7333 89.0437 75.352C89.0437 73.9333 89.5477 72.7573 90.5557 71.824C91.5637 70.8533 92.8517 70.368 94.4197 70.368C96.0251 70.368 97.3131 70.8533 98.2837 71.824C99.2917 72.7573 99.7957 73.9333 99.7957 75.352C99.7957 76.7333 99.2917 77.928 98.2837 78.936C97.3131 79.944 96.0251 80.448 94.4197 80.448Z" fill="white"/>
<path d="M90.1637 66.392H89.1637V67.392H90.1637V66.392ZM90.7797 62.92L89.8659 62.5139L89.8595 62.5282L89.8536 62.5427L90.7797 62.92ZM92.4037 60.232L91.6445 59.5812L91.6353 59.5919L91.6265 59.6028L92.4037 60.232ZM94.5317 58.048L93.8628 57.3047L94.5317 58.048ZM96.6037 56.144L97.2891 56.8722L97.2903 56.871L96.6037 56.144ZM98.2277 54.184L97.3957 53.6293L97.3847 53.6457L97.3744 53.6625L98.2277 54.184ZM97.2197 48.696L96.6153 49.4927L96.6218 49.4976L96.6284 49.5024L97.2197 48.696ZM88.1477 48.584L88.6045 49.4736L88.6139 49.4687L88.6232 49.4637L88.1477 48.584ZM84.7317 51.608L84.2256 52.4705L85.0294 52.9421L85.5564 52.1735L84.7317 51.608ZM77.9557 47.632L77.1195 47.0836L76.5431 47.9626L77.4496 48.4945L77.9557 47.632ZM84.1717 42.2L84.624 43.092L84.6339 43.0868L84.1717 42.2ZM101.196 41.36L100.836 42.2929L100.843 42.2957L100.85 42.2983L101.196 41.36ZM106.18 44.832L105.391 45.4473L105.396 45.4532L105.401 45.459L106.18 44.832ZM107.356 54.352L108.284 54.7234L108.284 54.7234L107.356 54.352ZM105.62 57.264L104.863 56.6104L105.62 57.264ZM103.324 59.56L102.67 58.8032L102.661 58.8107L102.653 58.8185L103.324 59.56ZM101.084 61.632L101.771 62.358L101.771 62.358L101.084 61.632ZM99.2917 63.76L98.4533 63.215L98.4435 63.2301L98.4342 63.2455L99.2917 63.76ZM98.6197 66.392V67.392H99.6197V66.392H98.6197ZM90.5557 78.936L89.8486 79.6431L89.8486 79.6431L90.5557 78.936ZM90.5557 71.824L91.2351 72.5578L91.2423 72.5511L91.2494 72.5443L90.5557 71.824ZM98.2837 71.824L97.5766 72.5311L97.5902 72.5447L97.6043 72.5578L98.2837 71.824ZM98.2837 78.936L97.5766 78.2289L97.5699 78.2356L97.5634 78.2424L98.2837 78.936ZM91.1637 66.392C91.1637 65.1893 91.3527 64.1641 91.7058 63.2973L89.8536 62.5427C89.3854 63.6919 89.1637 64.9813 89.1637 66.392H91.1637ZM91.6935 63.3261C92.1093 62.3907 92.6063 61.5711 93.181 60.8612L91.6265 59.6028C90.9318 60.4609 90.3462 61.4333 89.8659 62.5139L91.6935 63.3261ZM93.163 60.8828C93.8077 60.1306 94.487 59.4336 95.2007 58.7913L93.8628 57.3047C93.0831 58.0063 92.3438 58.7654 91.6445 59.5812L93.163 60.8828ZM95.2007 58.7913C95.9521 58.1151 96.6483 57.4753 97.2891 56.8722L95.9184 55.4158C95.2898 56.0073 94.6047 56.6369 93.8628 57.3047L95.2007 58.7913ZM97.2903 56.871C98.0159 56.1858 98.617 55.4648 99.081 54.7054L97.3744 53.6625C97.0172 54.2472 96.5355 54.8329 95.9171 55.417L97.2903 56.871ZM99.0598 54.7387C99.6192 53.8995 99.8997 52.9592 99.8997 51.944H97.8997C97.8997 52.5715 97.7322 53.1245 97.3957 53.6293L99.0598 54.7387ZM99.8997 51.944C99.8997 50.2691 99.1778 48.8919 97.8111 47.8896L96.6284 49.5024C97.5016 50.1428 97.8997 50.9309 97.8997 51.944H99.8997ZM97.8241 47.8993C96.5161 46.907 94.8244 46.464 92.8517 46.464V48.464C94.5377 48.464 95.758 48.8423 96.6153 49.4927L97.8241 47.8993ZM92.8517 46.464C90.9509 46.464 89.2161 46.8697 87.6722 47.7043L88.6232 49.4637C89.842 48.8049 91.2433 48.464 92.8517 48.464V46.464ZM87.6909 47.6944C86.1589 48.4812 84.8949 49.6018 83.907 51.0425L85.5564 52.1735C86.3606 51.0008 87.3739 50.1055 88.6045 49.4736L87.6909 47.6944ZM85.2378 50.7455L78.4618 46.7695L77.4496 48.4945L84.2256 52.4705L85.2378 50.7455ZM78.792 48.1804C80.1809 46.0622 82.1145 44.3643 84.6239 43.0919L83.7195 41.3081C80.9276 42.7237 78.7172 44.6471 77.1195 47.0836L78.792 48.1804ZM84.6339 43.0868C87.1094 41.7968 90.1528 41.128 93.8037 41.128V39.128C89.9133 39.128 86.5354 39.8406 83.7096 41.3132L84.6339 43.0868ZM93.8037 41.128C96.5077 41.128 98.8454 41.5247 100.836 42.2929L101.556 40.4271C99.2901 39.5526 96.6997 39.128 93.8037 39.128V41.128ZM100.85 42.2983C102.833 43.0289 104.329 44.0866 105.391 45.4473L106.968 44.2167C105.641 42.5161 103.814 41.259 101.541 40.4217L100.85 42.2983ZM105.401 45.459C106.47 46.7874 107.028 48.4424 107.028 50.488H109.028C109.028 48.0536 108.354 45.9379 106.959 44.205L105.401 45.459ZM107.028 50.488C107.028 51.8425 106.819 53.0004 106.427 53.9806L108.284 54.7234C108.788 53.4636 109.028 52.0455 109.028 50.488H107.028ZM106.427 53.9806C106.016 55.0091 105.492 55.8818 104.863 56.6104L106.377 57.9176C107.166 57.0036 107.8 55.9349 108.284 54.7234L106.427 53.9806ZM104.863 56.6104C104.185 57.3948 103.455 58.1257 102.67 58.8032L103.977 60.3168C104.836 59.5756 105.635 58.7758 106.377 57.9176L104.863 56.6104ZM102.653 58.8185C101.864 59.5325 101.111 60.2284 100.396 60.906L101.771 62.358C102.475 61.6916 103.216 61.0061 103.995 60.3015L102.653 58.8185ZM100.396 60.906C99.6349 61.627 98.9855 62.3963 98.4533 63.215L100.13 64.305C100.569 63.6304 101.114 62.981 101.771 62.358L100.396 60.906ZM98.4342 63.2455C97.8791 64.1707 97.6197 65.2318 97.6197 66.392H99.6197C99.6197 65.5362 99.8083 64.8426 100.149 64.2745L98.4342 63.2455ZM98.6197 65.392H90.1637V67.392H98.6197V65.392ZM94.4197 79.448C93.0878 79.448 92.0637 79.0297 91.2628 78.2289L89.8486 79.6431C91.0638 80.8583 92.6156 81.448 94.4197 81.448V79.448ZM91.2628 78.2289C90.4357 77.4017 90.0437 76.4588 90.0437 75.352H88.0437C88.0437 77.0079 88.6598 78.4543 89.8486 79.6431L91.2628 78.2289ZM90.0437 75.352C90.0437 74.2016 90.439 73.2949 91.2351 72.5578L89.8763 71.0902C88.6565 72.2197 88.0437 73.6651 88.0437 75.352H90.0437ZM91.2494 72.5443C92.048 71.7753 93.0765 71.368 94.4197 71.368V69.368C92.6269 69.368 91.0795 69.9314 89.8621 71.1037L91.2494 72.5443ZM94.4197 71.368C95.8083 71.368 96.8252 71.7797 97.5766 72.5311L98.9908 71.1169C97.8009 69.927 96.2418 69.368 94.4197 69.368V71.368ZM97.6043 72.5578C98.4005 73.2949 98.7957 74.2016 98.7957 75.352H100.796C100.796 73.6651 100.183 72.2197 98.9631 71.0902L97.6043 72.5578ZM98.7957 75.352C98.7957 76.4588 98.4038 77.4017 97.5766 78.2289L98.9908 79.6431C100.18 78.4543 100.796 77.0079 100.796 75.352H98.7957ZM97.5634 78.2424C96.8095 79.0252 95.797 79.448 94.4197 79.448V81.448C96.2531 81.448 97.8166 80.8628 99.004 79.6296L97.5634 78.2424Z" fill="#579EB0"/>
<path d="M17.4686 60V48.8H22.9406C24.3486 48.8 25.4046 49.0667 26.1086 49.6C26.8233 50.1333 27.1806 50.8373 27.1806 51.712C27.1806 52.2987 27.0366 52.8107 26.7486 53.248C26.4606 53.6747 26.066 54.0053 25.5646 54.24C25.0633 54.4747 24.4873 54.592 23.8366 54.592L24.1406 53.936C24.8446 53.936 25.4686 54.0533 26.0126 54.288C26.5566 54.512 26.978 54.848 27.2766 55.296C27.586 55.744 27.7406 56.2933 27.7406 56.944C27.7406 57.904 27.362 58.656 26.6046 59.2C25.8473 59.7333 24.7326 60 23.2606 60H17.4686ZM20.0446 58.048H23.0686C23.7406 58.048 24.2473 57.9413 24.5886 57.728C24.9406 57.504 25.1166 57.152 25.1166 56.672C25.1166 56.2027 24.9406 55.856 24.5886 55.632C24.2473 55.3973 23.7406 55.28 23.0686 55.28H19.8526V53.392H22.6206C23.25 53.392 23.73 53.2853 24.0606 53.072C24.402 52.848 24.5726 52.512 24.5726 52.064C24.5726 51.6267 24.402 51.3013 24.0606 51.088C23.73 50.864 23.25 50.752 22.6206 50.752H20.0446V58.048ZM33.799 60.128C32.8177 60.128 31.9537 59.936 31.207 59.552C30.471 59.168 29.9003 58.6453 29.495 57.984C29.0897 57.312 28.887 56.5493 28.887 55.696C28.887 54.832 29.0843 54.0693 29.479 53.408C29.8843 52.736 30.4337 52.2133 31.127 51.84C31.8203 51.456 32.6043 51.264 33.479 51.264C34.3217 51.264 35.079 51.4453 35.751 51.808C36.4337 52.16 36.9723 52.672 37.367 53.344C37.7617 54.0053 37.959 54.8 37.959 55.728C37.959 55.824 37.9537 55.936 37.943 56.064C37.9323 56.1813 37.9217 56.2933 37.911 56.4H30.919V54.944H36.599L35.639 55.376C35.639 54.928 35.5483 54.5387 35.367 54.208C35.1857 53.8773 34.935 53.6213 34.615 53.44C34.295 53.248 33.9217 53.152 33.495 53.152C33.0683 53.152 32.6897 53.248 32.359 53.44C32.039 53.6213 31.7883 53.8827 31.607 54.224C31.4257 54.5547 31.335 54.9493 31.335 55.408V55.792C31.335 56.2613 31.4363 56.6773 31.639 57.04C31.8523 57.392 32.1457 57.664 32.519 57.856C32.903 58.0373 33.351 58.128 33.863 58.128C34.3217 58.128 34.7217 58.0587 35.063 57.92C35.415 57.7813 35.735 57.5733 36.023 57.296L37.351 58.736C36.9563 59.184 36.4603 59.5307 35.863 59.776C35.2657 60.0107 34.5777 60.128 33.799 60.128ZM42.5168 60.128C41.7808 60.128 41.0714 60.0427 40.3888 59.872C39.7168 59.6907 39.1834 59.4667 38.7888 59.2L39.6208 57.408C40.0154 57.6533 40.4794 57.856 41.0128 58.016C41.5568 58.1653 42.0901 58.24 42.6128 58.24C43.1888 58.24 43.5941 58.1707 43.8288 58.032C44.0741 57.8933 44.1968 57.7013 44.1968 57.456C44.1968 57.2533 44.1008 57.104 43.9088 57.008C43.7274 56.9013 43.4821 56.8213 43.1727 56.768C42.8634 56.7147 42.5221 56.6613 42.1488 56.608C41.7861 56.5547 41.4181 56.4853 41.0448 56.4C40.6714 56.304 40.3301 56.1653 40.0208 55.984C39.7114 55.8027 39.4608 55.5573 39.2688 55.248C39.0874 54.9387 38.9967 54.5387 38.9967 54.048C38.9967 53.504 39.1514 53.024 39.4608 52.608C39.7808 52.192 40.2394 51.8667 40.8368 51.632C41.4341 51.3867 42.1488 51.264 42.9808 51.264C43.5674 51.264 44.1648 51.328 44.7728 51.456C45.3808 51.584 45.8874 51.7707 46.2928 52.016L45.4608 53.792C45.0448 53.5467 44.6234 53.3813 44.1968 53.296C43.7808 53.2 43.3754 53.152 42.9808 53.152C42.4261 53.152 42.0208 53.2267 41.7648 53.376C41.5088 53.5253 41.3808 53.7173 41.3808 53.952C41.3808 54.1653 41.4714 54.3253 41.6528 54.432C41.8448 54.5387 42.0954 54.624 42.4048 54.688C42.7141 54.752 43.0501 54.8107 43.4128 54.864C43.7861 54.9067 44.1594 54.976 44.5328 55.072C44.9061 55.168 45.2421 55.3067 45.5408 55.488C45.8501 55.6587 46.1008 55.8987 46.2928 56.208C46.4848 56.5067 46.5808 56.9013 46.5808 57.392C46.5808 57.9253 46.4208 58.4 46.1008 58.816C45.7808 59.2213 45.3168 59.5413 44.7088 59.776C44.1114 60.0107 43.3808 60.128 42.5168 60.128ZM52.2168 60.128C51.2994 60.128 50.4834 59.936 49.7688 59.552C49.0648 59.168 48.5048 58.6453 48.0888 57.984C47.6834 57.312 47.4808 56.5493 47.4808 55.696C47.4808 54.832 47.6834 54.0693 48.0888 53.408C48.5048 52.736 49.0648 52.2133 49.7688 51.84C50.4834 51.456 51.2994 51.264 52.2168 51.264C53.1234 51.264 53.9341 51.456 54.6488 51.84C55.3634 52.2133 55.9234 52.7307 56.3288 53.392C56.7341 54.0533 56.9368 54.8213 56.9368 55.696C56.9368 56.5493 56.7341 57.312 56.3288 57.984C55.9234 58.6453 55.3634 59.168 54.6488 59.552C53.9341 59.936 53.1234 60.128 52.2168 60.128ZM52.2168 58.08C52.6328 58.08 53.0061 57.984 53.3368 57.792C53.6674 57.6 53.9288 57.328 54.1208 56.976C54.3128 56.6133 54.4088 56.1867 54.4088 55.696C54.4088 55.1947 54.3128 54.768 54.1208 54.416C53.9288 54.064 53.6674 53.792 53.3368 53.6C53.0061 53.408 52.6328 53.312 52.2168 53.312C51.8008 53.312 51.4274 53.408 51.0968 53.6C50.7661 53.792 50.4994 54.064 50.2968 54.416C50.1048 54.768 50.0088 55.1947 50.0088 55.696C50.0088 56.1867 50.1048 56.6133 50.2968 56.976C50.4994 57.328 50.7661 57.6 51.0968 57.792C51.4274 57.984 51.8008 58.08 52.2168 58.08ZM58.6051 60V51.392H61.1011V60H58.6051ZM59.8531 50.192C59.3945 50.192 59.0211 50.0587 58.7331 49.792C58.4451 49.5253 58.3011 49.1947 58.3011 48.8C58.3011 48.4053 58.4451 48.0747 58.7331 47.808C59.0211 47.5413 59.3945 47.408 59.8531 47.408C60.3118 47.408 60.6851 47.536 60.9731 47.792C61.2611 48.0373 61.4051 48.3573 61.4051 48.752C61.4051 49.168 61.2611 49.5147 60.9731 49.792C60.6958 50.0587 60.3225 50.192 59.8531 50.192ZM68.6496 51.264C69.3323 51.264 69.9403 51.4027 70.4736 51.68C71.0176 51.9467 71.4443 52.3627 71.7536 52.928C72.063 53.4827 72.2176 54.1973 72.2176 55.072V60H69.7216V55.456C69.7216 54.7627 69.567 54.2507 69.2576 53.92C68.959 53.5893 68.5323 53.424 67.9776 53.424C67.583 53.424 67.2256 53.5093 66.9056 53.68C66.5963 53.84 66.351 54.0907 66.1696 54.432C65.999 54.7733 65.9136 55.2107 65.9136 55.744V60H63.4176V51.392H65.8016V53.776L65.3536 53.056C65.663 52.48 66.1056 52.0373 66.6816 51.728C67.2576 51.4187 67.9136 51.264 68.6496 51.264ZM26.3636 80.128C25.553 80.128 24.8223 79.9467 24.1716 79.584C23.521 79.2107 23.0036 78.6933 22.6196 78.032C22.2463 77.3707 22.0596 76.592 22.0596 75.696C22.0596 74.7893 22.2463 74.0053 22.6196 73.344C23.0036 72.6827 23.521 72.1707 24.1716 71.808C24.8223 71.4453 25.553 71.264 26.3636 71.264C27.089 71.264 27.7236 71.424 28.2676 71.744C28.8116 72.064 29.233 72.5493 29.5316 73.2C29.8303 73.8507 29.9796 74.6827 29.9796 75.696C29.9796 76.6987 29.8356 77.5307 29.5476 78.192C29.2596 78.8427 28.8436 79.328 28.2996 79.648C27.7663 79.968 27.121 80.128 26.3636 80.128ZM26.7956 78.08C27.201 78.08 27.569 77.984 27.8996 77.792C28.2303 77.6 28.4916 77.328 28.6836 76.976C28.8863 76.6133 28.9876 76.1867 28.9876 75.696C28.9876 75.1947 28.8863 74.768 28.6836 74.416C28.4916 74.064 28.2303 73.792 27.8996 73.6C27.569 73.408 27.201 73.312 26.7956 73.312C26.3796 73.312 26.0063 73.408 25.6756 73.6C25.345 73.792 25.0783 74.064 24.8756 74.416C24.6836 74.768 24.5876 75.1947 24.5876 75.696C24.5876 76.1867 24.6836 76.6133 24.8756 76.976C25.0783 77.328 25.345 77.6 25.6756 77.792C26.0063 77.984 26.3796 78.08 26.7956 78.08ZM29.0516 80V78.24L29.0996 75.68L28.9396 73.136V68.128H31.4356V80H29.0516ZM33.3138 73.44L34.3698 69.6L34.7218 71.056C34.2631 71.056 33.8844 70.9227 33.5858 70.656C33.2978 70.3787 33.1538 70.0053 33.1538 69.536C33.1538 69.0773 33.3031 68.7093 33.6018 68.432C33.9004 68.144 34.2684 68 34.7057 68C35.1538 68 35.5218 68.144 35.8098 68.432C36.0978 68.7093 36.2418 69.0773 36.2418 69.536C36.2418 69.6747 36.2311 69.8133 36.2098 69.952C36.1991 70.08 36.1618 70.2347 36.0978 70.416C36.0444 70.5973 35.9538 70.8373 35.8258 71.136L34.8978 73.44H33.3138ZM43.057 80V78.32L42.897 77.952V74.944C42.897 74.4107 42.7317 73.9947 42.401 73.696C42.081 73.3973 41.585 73.248 40.913 73.248C40.4543 73.248 40.001 73.3227 39.553 73.472C39.1157 73.6107 38.7423 73.8027 38.433 74.048L37.537 72.304C38.0063 71.9733 38.5717 71.7173 39.233 71.536C39.8943 71.3547 40.5663 71.264 41.249 71.264C42.561 71.264 43.5797 71.5733 44.305 72.192C45.0303 72.8107 45.393 73.776 45.393 75.088V80H43.057ZM40.433 80.128C39.761 80.128 39.185 80.016 38.705 79.792C38.225 79.5573 37.857 79.2427 37.601 78.848C37.345 78.4533 37.217 78.0107 37.217 77.52C37.217 77.008 37.3397 76.56 37.585 76.176C37.841 75.792 38.241 75.4933 38.785 75.28C39.329 75.056 40.0383 74.944 40.913 74.944H43.201V76.4H41.185C40.5983 76.4 40.193 76.496 39.969 76.688C39.7557 76.88 39.649 77.12 39.649 77.408C39.649 77.728 39.7717 77.984 40.017 78.176C40.273 78.3573 40.6197 78.448 41.057 78.448C41.473 78.448 41.8463 78.352 42.177 78.16C42.5077 77.9573 42.7477 77.664 42.897 77.28L43.281 78.432C43.0997 78.9867 42.769 79.408 42.289 79.696C41.809 79.984 41.1903 80.128 40.433 80.128ZM47.652 80V71.392H50.148V80H47.652ZM48.9 70.192C48.4413 70.192 48.068 70.0587 47.78 69.792C47.492 69.5253 47.348 69.1947 47.348 68.8C47.348 68.4053 47.492 68.0747 47.78 67.808C48.068 67.5413 48.4413 67.408 48.9 67.408C49.3587 67.408 49.732 67.536 50.02 67.792C50.308 68.0373 50.452 68.3573 50.452 68.752C50.452 69.168 50.308 69.5147 50.02 69.792C49.7427 70.0587 49.3693 70.192 48.9 70.192ZM56.1605 80.128C55.3498 80.128 54.6192 79.9467 53.9685 79.584C53.3178 79.2107 52.8005 78.6933 52.4165 78.032C52.0432 77.3707 51.8565 76.592 51.8565 75.696C51.8565 74.7893 52.0432 74.0053 52.4165 73.344C52.8005 72.6827 53.3178 72.1707 53.9685 71.808C54.6192 71.4453 55.3498 71.264 56.1605 71.264C56.8858 71.264 57.5205 71.424 58.0645 71.744C58.6085 72.064 59.0298 72.5493 59.3285 73.2C59.6272 73.8507 59.7765 74.6827 59.7765 75.696C59.7765 76.6987 59.6325 77.5307 59.3445 78.192C59.0565 78.8427 58.6405 79.328 58.0965 79.648C57.5632 79.968 56.9178 80.128 56.1605 80.128ZM56.5925 78.08C56.9978 78.08 57.3658 77.984 57.6965 77.792C58.0272 77.6 58.2885 77.328 58.4805 76.976C58.6832 76.6133 58.7845 76.1867 58.7845 75.696C58.7845 75.1947 58.6832 74.768 58.4805 74.416C58.2885 74.064 58.0272 73.792 57.6965 73.6C57.3658 73.408 56.9978 73.312 56.5925 73.312C56.1765 73.312 55.8032 73.408 55.4725 73.6C55.1418 73.792 54.8752 74.064 54.6725 74.416C54.4805 74.768 54.3845 75.1947 54.3845 75.696C54.3845 76.1867 54.4805 76.6133 54.6725 76.976C54.8752 77.328 55.1418 77.6 55.4725 77.792C55.8032 77.984 56.1765 78.08 56.5925 78.08ZM58.8485 80V78.24L58.8965 75.68L58.7365 73.136V68.128H61.2325V80H58.8485ZM67.8146 80.128C66.8333 80.128 65.9693 79.936 65.2226 79.552C64.4866 79.168 63.916 78.6453 63.5106 77.984C63.1053 77.312 62.9026 76.5493 62.9026 75.696C62.9026 74.832 63.1 74.0693 63.4946 73.408C63.9 72.736 64.4493 72.2133 65.1426 71.84C65.836 71.456 66.62 71.264 67.4946 71.264C68.3373 71.264 69.0946 71.4453 69.7666 71.808C70.4493 72.16 70.988 72.672 71.3826 73.344C71.7773 74.0053 71.9746 74.8 71.9746 75.728C71.9746 75.824 71.9693 75.936 71.9586 76.064C71.948 76.1813 71.9373 76.2933 71.9266 76.4H64.9346V74.944H70.6146L69.6546 75.376C69.6546 74.928 69.564 74.5387 69.3826 74.208C69.2013 73.8773 68.9506 73.6213 68.6306 73.44C68.3106 73.248 67.9373 73.152 67.5106 73.152C67.084 73.152 66.7053 73.248 66.3746 73.44C66.0546 73.6213 65.804 73.8827 65.6226 74.224C65.4413 74.5547 65.3506 74.9493 65.3506 75.408V75.792C65.3506 76.2613 65.452 76.6773 65.6546 77.04C65.868 77.392 66.1613 77.664 66.5346 77.856C66.9186 78.0373 67.3666 78.128 67.8786 78.128C68.3373 78.128 68.7373 78.0587 69.0786 77.92C69.4306 77.7813 69.7506 77.5733 70.0386 77.296L71.3666 78.736C70.972 79.184 70.476 79.5307 69.8786 79.776C69.2813 80.0107 68.5933 80.128 67.8146 80.128Z" fill="white"/>
</svg>
