<svg xmlns="http://www.w3.org/2000/svg" width="34" height="34" viewBox="0 0 34 34" fill="none">
  <g clip-path="url(#clip0_153_11778)">
    <path d="M8.59976 0V11.0012M26.2017 0V11.0012M7.49963 16.5018H14.1004M27.3018 16.5018H20.7011M7.49963 23.1026H14.1004M20.7011 23.1026H27.3018M4.19927 5.50061H30.6022C31.1857 5.50061 31.7454 5.73242 32.158 6.14505C32.5706 6.55767 32.8024 7.11731 32.8024 7.70085V29.7033C32.8024 30.2868 32.5706 30.8465 32.158 31.2591C31.7454 31.6717 31.1857 31.9035 30.6022 31.9035H4.19927C3.61573 31.9035 3.05609 31.6717 2.64346 31.2591C2.23083 30.8465 1.99902 30.2868 1.99902 29.7033V7.70085C1.99902 7.11731 2.23083 6.55767 2.64346 6.14505C3.05609 5.73242 3.61573 5.50061 4.19927 5.50061Z" stroke="#F8F8F8" stroke-width="2.20024"/>
  </g>
  <defs>
    <clipPath id="clip0_153_11778">
      <rect width="33.0037" height="33.0037" fill="white" transform="translate(0.898438)"/>
    </clipPath>
  </defs>
</svg>