<svg xmlns="http://www.w3.org/2000/svg" width="39" height="39" viewBox="0 0 39 39" fill="none">
  <path d="M33.1731 27.1052L23.782 6.96499C23.2482 5.82036 22.2815 4.93466 21.0947 4.50274C19.9079 4.07082 18.5981 4.12805 17.4535 4.66184C16.3089 5.19564 15.4232 6.16227 14.9912 7.34909C14.5593 8.53591 14.6165 9.8457 15.1503 10.9903L24.5423 31.1297C25.076 32.2744 26.0425 33.1601 27.2292 33.5921C28.416 34.0241 29.7257 33.967 30.8704 33.4333C32.015 32.8996 32.9007 31.9331 33.3327 30.7463C33.7647 29.5596 33.7068 28.2498 33.1731 27.1052Z" stroke="#F8F8F8" stroke-width="3.17456"/>
  <path d="M18.9531 21.06L14.2563 31.1297C13.9921 31.6965 13.6187 32.2057 13.1576 32.6282C12.6966 33.0507 12.1568 33.3782 11.5691 33.5921C10.9815 33.8059 10.3574 33.902 9.73266 33.8746C9.10788 33.8473 8.49461 33.6972 7.92785 33.4329C6.78339 32.8991 5.89781 31.9326 5.4659 30.746C5.03398 29.5593 5.09111 28.2497 5.62471 27.1052L14.9341 7.14276" stroke="#F8F8F8" stroke-width="3.17456" stroke-linecap="round"/>
  <path d="M7.92851 33.4328C10.312 34.5442 13.1452 33.513 14.2566 31.1295C15.3681 28.746 14.3369 25.9128 11.9534 24.8014C9.5699 23.6899 6.73669 24.7211 5.62525 27.1046C4.51381 29.4881 5.54502 32.3213 7.92851 33.4328Z" stroke="#F8F8F8" stroke-width="3.17456"/>
</svg>