<svg width="41" height="41" viewBox="0 0 41 41" fill="none" xmlns="http://www.w3.org/2000/svg">
<g clip-path="url(#clip0_317_717)">
<path d="M29.3264 0.950154C31.3271 1.04214 32.7103 1.33618 33.9882 1.83226C35.2 2.28532 36.297 2.99984 37.2013 3.925C38.1264 4.82926 38.841 5.92628 39.294 7.13803C39.7901 8.41766 40.0841 9.79913 40.1761 11.7999C40.2895 14.2803 40.3026 15.1542 40.3026 20.5355C40.3026 25.9169 40.2895 26.7907 40.1761 29.2712C40.0841 31.2719 39.7901 32.655 39.294 33.9346C38.8407 35.1458 38.1262 36.2422 37.2013 37.146C36.297 38.0712 35.2 38.7858 33.9882 39.2388C32.7086 39.7349 31.3271 40.0289 29.3264 40.1209C26.846 40.2342 25.9737 40.2474 20.5908 40.2474C15.2078 40.2474 14.3339 40.2342 11.8551 40.1209C9.85437 40.0289 8.47125 39.7349 7.19163 39.2388C5.98044 38.7855 4.88399 38.071 3.98024 37.146C3.05508 36.2418 2.34056 35.1448 1.8875 33.933C1.39141 32.6534 1.09738 31.2719 1.00539 29.2712C0.892047 26.794 0.878906 25.9201 0.878906 20.5355C0.878906 15.1525 0.892047 14.277 1.00539 11.7999C1.09738 9.79913 1.39141 8.41602 1.8875 7.13803C2.34056 5.92628 3.05508 4.82926 3.98024 3.925C4.88402 3.00004 5.98046 2.28553 7.19163 1.83226C8.4729 1.33618 9.85437 1.04214 11.8551 0.950154C14.3322 0.836811 15.2061 0.823669 20.5908 0.823669C25.9737 0.823669 26.8493 0.836811 29.3264 0.950154ZM20.5908 5.20463C15.2686 5.20463 14.4538 5.21613 12.0539 5.32618C10.5311 5.39518 9.61783 5.58901 8.77843 5.9159C8.13414 6.14952 7.55198 6.5277 7.07664 7.0214C6.58189 7.49587 6.20354 8.0783 5.97113 8.72319C5.64589 9.56095 5.45041 10.4759 5.38142 11.9986C5.27136 14.3986 5.25986 15.2133 5.25986 20.5355C5.25986 25.8577 5.27136 26.6725 5.38142 29.0724C5.45041 30.5951 5.64425 31.5084 5.97113 32.3462C6.25038 33.0624 6.54606 33.5174 7.07664 34.0496C7.60886 34.5818 8.06387 34.8775 8.77843 35.1551C9.61618 35.4804 10.5311 35.6759 12.0539 35.7449C14.4554 35.8549 15.2702 35.8664 20.5908 35.8664C25.913 35.8664 26.7261 35.8549 29.1276 35.7449C30.6504 35.6759 31.5637 35.482 32.4031 35.1551C33.0474 34.9215 33.6295 34.5433 34.1049 34.0496C34.6371 33.5174 34.9328 33.0624 35.2104 32.3478C35.5356 31.5101 35.7311 30.5951 35.8001 29.0724C35.9101 26.6708 35.9216 25.8561 35.9216 20.5355C35.9216 15.215 35.9101 14.4002 35.8001 11.9986C35.7311 10.4759 35.5373 9.56259 35.2104 8.72483C34.9781 8.07941 34.5997 7.49642 34.1049 7.0214C33.6299 6.52649 33.0469 6.14813 32.4014 5.9159C31.5637 5.59065 30.6487 5.39518 29.126 5.32618C26.7261 5.21613 25.9113 5.20463 20.5891 5.20463H20.5908ZM20.5908 30.7561C17.8801 30.7561 15.2804 29.6793 13.3637 27.7626C11.447 25.8458 10.3702 23.2462 10.3702 20.5355C10.3702 17.8248 11.447 15.2252 13.3637 13.3085C15.2804 11.3917 17.8801 10.3149 20.5908 10.3149C23.3014 10.3149 25.9011 11.3917 27.8178 13.3085C29.7345 15.2252 30.8113 17.8248 30.8113 20.5355C30.8113 23.2462 29.7345 25.8458 27.8178 27.7626C25.9011 29.6793 23.3014 30.7561 20.5908 30.7561ZM20.5908 26.3768C22.14 26.3768 23.6257 25.7614 24.7212 24.6659C25.8166 23.5705 26.432 22.0847 26.432 20.5355C26.432 18.9863 25.8166 17.5006 24.7212 16.4051C23.6257 15.3097 22.14 14.6942 20.5908 14.6942C19.0415 14.6942 17.5558 15.3097 16.4603 16.4051C15.3649 17.5006 14.7495 18.9863 14.7495 20.5355C14.7495 22.0847 15.3649 23.5705 16.4603 24.6659C17.5558 25.7614 19.0415 26.3768 20.5908 26.3768ZM30.8113 12.5046C30.2304 12.5046 29.6732 12.2738 29.2624 11.863C28.8517 11.4522 28.6209 10.8951 28.6209 10.3141C28.6209 9.73315 28.8517 9.17599 29.2624 8.7652C29.6732 8.35441 30.2304 8.12362 30.8113 8.12362C31.3923 8.12362 31.9495 8.35441 32.3602 8.7652C32.771 9.17599 33.0018 9.73315 33.0018 10.3141C33.0018 10.8951 32.771 11.4522 32.3602 11.863C31.9495 12.2738 31.3923 12.5046 30.8113 12.5046Z" fill="white"/>
</g>
<defs>
<clipPath id="clip0_317_717">
<rect width="39.4237" height="39.4237" fill="white" transform="translate(0.876953 0.823669)"/>
</clipPath>
</defs>
</svg>
