<svg xmlns="http://www.w3.org/2000/svg" width="26" height="26" viewBox="0 0 26 26" fill="none">
<g clip-path="url(#clip0_153_11706)">
<path d="M18.6008 0.367228C19.8913 0.426561 20.7834 0.616216 21.6077 0.936193C22.3893 1.22842 23.0969 1.68929 23.6802 2.28603C24.2769 2.86928 24.7378 3.57687 25.03 4.35846C25.35 5.18383 25.5396 6.07489 25.599 7.36539C25.6721 8.96527 25.6805 9.52894 25.6805 12.9999C25.6805 16.4709 25.6721 17.0346 25.599 18.6345C25.5396 19.925 25.35 20.8171 25.03 21.6425C24.7376 22.4237 24.2768 23.1309 23.6802 23.7139C23.0969 24.3106 22.3893 24.7715 21.6077 25.0637C20.7824 25.3837 19.8913 25.5733 18.6008 25.6327C17.0009 25.7058 16.4383 25.7142 12.9662 25.7142C9.49419 25.7142 8.93052 25.7058 7.3317 25.6327C6.0412 25.5733 5.14908 25.3837 4.32371 25.0637C3.54248 24.7714 2.83526 24.3105 2.25234 23.7139C1.6556 23.1306 1.19473 22.423 0.902501 21.6414C0.582525 20.8161 0.39287 19.925 0.333537 18.6345C0.260429 17.0367 0.251953 16.4731 0.251953 12.9999C0.251953 9.52788 0.260429 8.96315 0.333537 7.36539C0.39287 6.07489 0.582525 5.18277 0.902501 4.35846C1.19473 3.57687 1.6556 2.86928 2.25234 2.28603C2.83528 1.68942 3.5425 1.22856 4.32371 0.936193C5.15014 0.616216 6.0412 0.426561 7.3317 0.367228C8.92946 0.294121 9.49313 0.285645 12.9662 0.285645C16.4383 0.285645 17.003 0.294121 18.6008 0.367228ZM12.9662 3.1114C9.53339 3.1114 9.00786 3.11881 7.4599 3.1898C6.47772 3.2343 5.88862 3.35933 5.34721 3.57017C4.93164 3.72086 4.55613 3.96479 4.24954 4.28323C3.93042 4.58927 3.68638 4.96494 3.53648 5.3809C3.32669 5.92126 3.20061 6.51141 3.15611 7.49359C3.08512 9.04156 3.07771 9.56708 3.07771 12.9999C3.07771 16.4328 3.08512 16.9583 3.15611 18.5063C3.20061 19.4885 3.32563 20.0776 3.53648 20.6179C3.7166 21.0799 3.90731 21.3734 4.24954 21.7166C4.59282 22.0599 4.88631 22.2506 5.34721 22.4297C5.88756 22.6395 6.47772 22.7656 7.4599 22.8101C9.00892 22.8811 9.53445 22.8885 12.9662 22.8885C16.3991 22.8885 16.9236 22.8811 18.4726 22.8101C19.4548 22.7656 20.0439 22.6406 20.5853 22.4297C21.0009 22.279 21.3764 22.0351 21.683 21.7166C22.0262 21.3734 22.217 21.0799 22.396 20.619C22.6058 20.0786 22.7319 19.4885 22.7764 18.5063C22.8474 16.9573 22.8548 16.4317 22.8548 12.9999C22.8548 9.56814 22.8474 9.04261 22.7764 7.49359C22.7319 6.51141 22.6069 5.92232 22.396 5.38196C22.2462 4.96565 22.0021 4.58962 21.683 4.28323C21.3766 3.96401 21.0006 3.71996 20.5842 3.57017C20.0439 3.36038 19.4537 3.2343 18.4715 3.1898C16.9236 3.11881 16.398 3.1114 12.9652 3.1114H12.9662ZM12.9662 19.5923C11.2178 19.5923 9.54105 18.8978 8.30474 17.6614C7.06844 16.4251 6.37389 14.7483 6.37389 12.9999C6.37389 11.2515 7.06844 9.57474 8.30474 8.33844C9.54105 7.10213 11.2178 6.40758 12.9662 6.40758C14.7147 6.40758 16.3914 7.10213 17.6278 8.33844C18.8641 9.57474 19.5586 11.2515 19.5586 12.9999C19.5586 14.7483 18.8641 16.4251 17.6278 17.6614C16.3914 18.8978 14.7147 19.5923 12.9662 19.5923ZM12.9662 16.7676C13.9655 16.7676 14.9238 16.3707 15.6304 15.6641C16.337 14.9575 16.7339 13.9992 16.7339 12.9999C16.7339 12.0007 16.337 11.0424 15.6304 10.3358C14.9238 9.62922 13.9655 9.23227 12.9662 9.23227C11.967 9.23227 11.0087 9.62922 10.3021 10.3358C9.59553 11.0424 9.19858 12.0007 9.19858 12.9999C9.19858 13.9992 9.59553 14.9575 10.3021 15.6641C11.0087 16.3707 11.967 16.7676 12.9662 16.7676ZM19.5586 7.81992C19.1839 7.81992 18.8245 7.67107 18.5596 7.4061C18.2946 7.14114 18.1457 6.78177 18.1457 6.40705C18.1457 6.03233 18.2946 5.67296 18.5596 5.40799C18.8245 5.14303 19.1839 4.99417 19.5586 4.99417C19.9333 4.99417 20.2927 5.14303 20.5577 5.40799C20.8226 5.67296 20.9715 6.03233 20.9715 6.40705C20.9715 6.78177 20.8226 7.14114 20.5577 7.4061C20.2927 7.67107 19.9333 7.81992 19.5586 7.81992Z" fill="#579EB0"/>
</g>
<defs>
<clipPath id="clip0_153_11706">
<rect width="25.4286" height="25.4286" fill="white" transform="translate(0.250977 0.285645)"/>
</clipPath>
</defs>
</svg>