<svg width="33" height="33" viewBox="0 0 33 33" fill="none" xmlns="http://www.w3.org/2000/svg">
<path d="M28.4316 23.4802L20.2964 6.03354C19.834 5.04199 18.9967 4.27475 17.9686 3.90059C16.9405 3.52643 15.8058 3.57601 14.8143 4.03841C13.8228 4.50082 13.0555 5.33817 12.6814 6.36627C12.3072 7.39437 12.3568 8.52899 12.8192 9.52054L20.955 26.9665C21.4174 27.9581 22.2546 28.7254 23.2827 29.0996C24.3107 29.4738 25.4453 29.4243 26.4368 28.962C27.4284 28.4997 28.1957 27.6624 28.5699 26.6344C28.9441 25.6064 28.8939 24.4718 28.4316 23.4802Z" stroke="#F8F8F8" stroke-width="2.75"/>
<path d="M16.1129 18.2435L12.0443 26.9665C11.8153 27.4575 11.4919 27.8986 11.0925 28.2645C10.6931 28.6305 10.2255 28.9143 9.71643 29.0995C9.20736 29.2848 8.66679 29.368 8.12557 29.3443C7.58436 29.3206 7.0531 29.1906 6.56214 28.9616C5.57074 28.4993 4.80359 27.662 4.42944 26.6341C4.05529 25.6061 4.10478 24.4717 4.56702 23.4802L12.6314 6.1875" stroke="#F8F8F8" stroke-width="2.75" stroke-linecap="round"/>
<path d="M6.56247 28.9616C8.62719 29.9243 11.0815 29.0311 12.0443 26.9663C13.0071 24.9016 12.1138 22.4473 10.0491 21.4845C7.98434 20.5217 5.53004 21.415 4.56725 23.4797C3.60445 25.5445 4.49774 27.9988 6.56247 28.9616Z" stroke="#F8F8F8" stroke-width="2.75"/>
</svg>
