<svg width="26" height="26" viewBox="0 0 26 26" fill="none" xmlns="http://www.w3.org/2000/svg">
<g clip-path="url(#clip0_576_2380)">
<path d="M6.06719 0V8.66667M19.9339 0V8.66667M5.20052 13H10.4005M20.8005 13H15.6005M5.20052 18.2H10.4005M15.6005 18.2H20.8005M2.60052 4.33333H23.4005C23.8602 4.33333 24.3011 4.51595 24.6262 4.84101C24.9512 5.16608 25.1339 5.60696 25.1339 6.06667V23.4C25.1339 23.8597 24.9512 24.3006 24.6262 24.6257C24.3011 24.9507 23.8602 25.1333 23.4005 25.1333H2.60052C2.14081 25.1333 1.69993 24.9507 1.37487 24.6257C1.04981 24.3006 0.867188 23.8597 0.867188 23.4V6.06667C0.867188 5.60696 1.04981 5.16608 1.37487 4.84101C1.69993 4.51595 2.14081 4.33333 2.60052 4.33333Z" stroke="#F8F8F8" stroke-width="1.73333"/>
</g>
<defs>
<clipPath id="clip0_576_2380">
<rect width="26" height="26" fill="white"/>
</clipPath>
</defs>
</svg>
