<svg width="29" height="29" viewBox="0 0 29 29" fill="none" xmlns="http://www.w3.org/2000/svg">
<path fill-rule="evenodd" clip-rule="evenodd" d="M19.3337 10.875C19.3337 12.1568 18.8244 13.3862 17.918 14.2926C17.0116 15.1991 15.7822 15.7083 14.5003 15.7083C13.2184 15.7083 11.9891 15.1991 11.0826 14.2926C10.1762 13.3862 9.66699 12.1568 9.66699 10.875C9.66699 9.59308 10.1762 8.3637 11.0826 7.45728C11.9891 6.55085 13.2184 6.04163 14.5003 6.04163C15.7822 6.04163 17.0116 6.55085 17.918 7.45728C18.8244 8.3637 19.3337 9.59308 19.3337 10.875ZM16.917 10.875C16.917 11.5159 16.6624 12.1306 16.2092 12.5838C15.756 13.037 15.1413 13.2916 14.5003 13.2916C13.8594 13.2916 13.2447 13.037 12.7915 12.5838C12.3383 12.1306 12.0837 11.5159 12.0837 10.875C12.0837 10.234 12.3383 9.61933 12.7915 9.16612C13.2447 8.7129 13.8594 8.45829 14.5003 8.45829C15.1413 8.45829 15.756 8.7129 16.2092 9.16612C16.6624 9.61933 16.917 10.234 16.917 10.875Z" fill="white"/>
<path fill-rule="evenodd" clip-rule="evenodd" d="M14.5007 1.20831C7.16003 1.20831 1.20898 7.15935 1.20898 14.5C1.20898 21.8406 7.16003 27.7916 14.5007 27.7916C21.8413 27.7916 27.7923 21.8406 27.7923 14.5C27.7923 7.15935 21.8413 1.20831 14.5007 1.20831ZM3.62565 14.5C3.62565 17.0254 4.48719 19.3502 5.93115 21.1966C6.94522 19.8649 8.25345 18.7856 9.75363 18.0432C11.2538 17.3007 12.9053 16.9152 14.5792 16.9166C16.2314 16.9151 17.8621 17.2907 19.3472 18.0148C20.8323 18.7389 22.1324 19.7924 23.1487 21.0951C24.1956 19.7219 24.9006 18.1192 25.2051 16.4195C25.5097 14.7199 25.4052 12.9721 24.9002 11.3208C24.3952 9.66959 23.5042 8.16233 22.301 6.92377C21.0979 5.68522 19.617 4.75098 17.9811 4.19834C16.3452 3.64571 14.6012 3.49058 12.8934 3.74578C11.1856 4.00098 9.56315 4.65918 8.16025 5.66592C6.75734 6.67266 5.61434 7.99899 4.8258 9.53517C4.03727 11.0714 3.62587 12.7732 3.62565 14.5ZM14.5007 25.375C12.0042 25.3787 9.58306 24.5199 7.64698 22.9438C8.42627 21.8282 9.46352 20.9173 10.6705 20.2887C11.8774 19.6601 13.2184 19.3323 14.5792 19.3333C15.9231 19.3322 17.2478 19.6518 18.4434 20.2654C19.6389 20.8791 20.6708 21.7691 21.4534 22.8616C19.5023 24.4889 17.0413 25.3785 14.5007 25.375Z" fill="white"/>
</svg>
