<?xml version="1.0" encoding="utf-8"?>
<!-- Generator: Adobe Illustrator 26.5.0, SVG Export Plug-In . SVG Version: 6.00 Build 0)  -->
<svg version="1.1" id="Calque_1" xmlns="http://www.w3.org/2000/svg" xmlns:xlink="http://www.w3.org/1999/xlink" x="0px" y="0px"
	 viewBox="0 0 242.3 129.6" style="enable-background:new 0 0 242.3 129.6;" xml:space="preserve">
<style type="text/css">
	.st0{fill:#FFFFFF;}
</style>
<g>
	<polygon class="st0" points="71.1,66.6 71.1,66.6 65.5,49.1 60,49.1 68,71.2 74.2,71.2 82.2,49.1 76.7,49.1 	"/>
	<rect x="85.4" y="49.1" class="st0" width="5.3" height="22.1"/>
	<path class="st0" d="M106.7,58.1l-3.1-0.6c-2.3-0.4-3.3-1.2-3.3-2.5c0-1.6,1.4-2.7,3.5-2.7c2.1,0,3.8,1.4,4.1,3.5l4.7-1.1
		c-0.6-3.8-4.1-6.4-8.8-6.4c-5.1,0-8.8,2.8-8.8,7.1c0,3.5,2.2,5.4,7,6.4l3.1,0.6c2.6,0.5,3.7,1.3,3.7,2.7c0,1.7-1.6,2.9-4.3,2.9
		c-2.9,0-5.1-1.7-5.4-4.4l-4.8,0.9c0.5,4.8,4.6,7.4,10.1,7.4c5.7,0,9.7-2.8,9.7-7.4C114,61,111.7,58.9,106.7,58.1z"/>
	<path class="st0" d="M131.8,62.6c0,2.9-1.8,4.9-4.6,4.9c-2.9,0-4.6-2-4.6-4.9V49.1h-5.3v13.6c0,5.7,3.8,9.3,9.9,9.3
		c6.1,0,9.9-3.6,9.9-9.3V49.1h-5.3V62.6z"/>
	<polygon class="st0" points="145.5,49.3 137.4,71.4 142.9,71.4 148.5,54 148.5,54 154.1,71.4 159.6,71.4 151.6,49.3 	"/>
	<polygon class="st0" points="166.6,49.1 161.3,49.1 161.3,71.2 175.8,71.2 175.8,66.7 166.6,66.7 	"/>
	<g>
		<polygon class="st0" points="168.4,73.8 166.3,73.8 164,76.5 164,76.5 164,73.8 162.2,73.8 162.2,81 164,81 164,78.6 164.7,77.8 
			166.4,81 168.5,81 165.9,76.5 		"/>
		<path class="st0" d="M171.9,73.5c-2.4,0-4,1.5-4,3.9c0,2.3,1.6,3.9,4,3.9c2.4,0,4-1.5,4-3.9C175.9,75,174.3,73.5,171.9,73.5z
			 M171.9,79.7c-1.4,0-2.3-0.9-2.3-2.4c0-1.4,0.9-2.4,2.3-2.4c1.4,0,2.3,0.9,2.3,2.4C174.1,78.8,173.3,79.7,171.9,79.7z"/>
		<path class="st0" d="M161,77.5l-1.3-0.4c-0.1,0.4-0.2,0.8-0.4,1.1L158,77c0.5-0.3,0.9-0.5,1.1-0.8c0.2-0.3,0.3-0.6,0.3-1
			c0-0.5-0.2-0.9-0.6-1.2s-0.9-0.5-1.5-0.5c-0.4,0-0.8,0.1-1.2,0.2c-0.3,0.1-0.6,0.4-0.8,0.6c-0.2,0.3-0.3,0.6-0.3,0.9
			c0,0.3,0.1,0.5,0.2,0.8c0.1,0.2,0.3,0.5,0.6,0.8c-0.6,0.3-1,0.6-1.2,1c-0.3,0.3-0.4,0.7-0.4,1.2c0,0.4,0.1,0.7,0.4,1
			c0.2,0.3,0.6,0.5,1,0.7c0.4,0.2,0.9,0.3,1.4,0.3c0.9,0,1.7-0.3,2.4-0.8l0.9,0.8l0.9-1l-0.9-0.8C160.7,78.7,160.9,78.1,161,77.5z
			 M156.8,74.8c0.1-0.1,0.3-0.2,0.6-0.2c0.2,0,0.4,0.1,0.5,0.2c0.1,0.1,0.2,0.3,0.2,0.4c0,0.2-0.1,0.3-0.2,0.5
			c-0.1,0.1-0.4,0.3-0.7,0.5c-0.2-0.2-0.4-0.4-0.4-0.5c-0.1-0.1-0.1-0.3-0.1-0.4C156.6,75,156.6,74.9,156.8,74.8z M157.1,79.7
			c-0.4,0-0.7-0.1-0.9-0.2c-0.2-0.2-0.4-0.4-0.4-0.7c0-0.2,0.1-0.4,0.2-0.6c0.1-0.2,0.4-0.4,0.7-0.5l1.8,1.6
			C158.1,79.5,157.6,79.7,157.1,79.7z"/>
	</g>
	<g>
		<path class="st0" d="M181.3,72.7c0-0.5-0.3-0.8-0.9-0.8h-0.9V74h0.4v-0.6h0.5c0,0,0.1,0,0.1,0l0.4,0.6h0.4l-0.5-0.7
			C181.1,73.2,181.3,73,181.3,72.7z M180.4,73.1h-0.5v-0.8h0.5c0.3,0,0.5,0.2,0.5,0.4C180.9,72.9,180.7,73.1,180.4,73.1z"/>
		<path class="st0" d="M180.3,70.9c-1.1,0-2.1,0.9-2.1,2.1c0,1.1,0.9,2.1,2.1,2.1c1.1,0,2.1-0.9,2.1-2.1
			C182.3,71.9,181.4,70.9,180.3,70.9z M180.3,74.7c-0.9,0-1.7-0.8-1.7-1.7s0.8-1.7,1.7-1.7s1.7,0.8,1.7,1.7S181.2,74.7,180.3,74.7z"
			/>
	</g>
</g>
</svg>
