<?xml version="1.0" encoding="utf-8"?>
<!-- Generator: Adobe Illustrator 26.5.0, SVG Export Plug-In . SVG Version: 6.00 Build 0)  -->
<svg version="1.1" id="Calque_1" xmlns="http://www.w3.org/2000/svg" xmlns:xlink="http://www.w3.org/1999/xlink" x="0px" y="0px"
	 viewBox="53 51 138 28" style="enable-background:new 0 0 222.3 129.6;" xml:space="preserve">
<style type="text/css">
	.st0{fill:#FFFFFF;}
</style>
<g>
	<polygon class="st0" points="64.5,72.7 64.5,72.7 58.9,55.3 53.4,55.3 61.4,77.4 67.5,77.4 75.6,55.3 70.1,55.3 	"/>
	<rect x="78.7" y="55.3" class="st0" width="5.3" height="22.1"/>
	<path class="st0" d="M100.1,64.3L97,63.7c-2.3-0.4-3.3-1.2-3.3-2.5c0-1.6,1.4-2.7,3.5-2.7c2.1,0,3.8,1.4,4.1,3.5l4.7-1.1
		c-0.6-3.8-4.1-6.4-8.8-6.4c-5.1,0-8.8,2.8-8.8,7.1c0,3.5,2.2,5.4,7,6.4l3.1,0.6c2.6,0.5,3.7,1.3,3.7,2.7c0,1.7-1.6,2.9-4.3,2.9
		c-2.9,0-5.1-1.7-5.4-4.4l-4.8,0.9c0.5,4.8,4.6,7.4,10.1,7.4c5.7,0,9.7-2.8,9.7-7.4C107.4,67.2,105.1,65.1,100.1,64.3z"/>
	<path class="st0" d="M125.2,68.8c0,2.9-1.8,4.9-4.6,4.9c-2.9,0-4.6-2-4.6-4.9V55.3h-5.3v13.6c0,5.7,3.8,9.3,9.9,9.3
		c6.1,0,9.9-3.6,9.9-9.3V55.3h-5.3V68.8z"/>
	<polygon class="st0" points="138.8,55.5 130.8,77.6 136.3,77.6 141.9,60.2 141.9,60.2 147.5,77.6 153,77.6 145,55.5 	"/>
	<polygon class="st0" points="160,55.3 154.7,55.3 154.7,77.4 169.2,77.4 169.2,72.8 160,72.8 	"/>
	<g>
		<polygon class="st0" points="172.9,63 172.9,65.1 175.7,67.5 175.7,67.5 172.9,67.5 172.9,69.3 180.3,69.3 180.3,67.5 177.9,67.5 
			177.1,66.8 180.3,65 180.3,62.9 175.7,65.5 		"/>
		<path class="st0" d="M172.6,59.4c0,2.5,1.6,4.1,4,4.1c2.4,0,4-1.6,4-4.1c0-2.5-1.6-4.1-4-4.1C174.2,55.3,172.6,56.9,172.6,59.4z
			 M179,59.4c0,1.4-1,2.3-2.5,2.3c-1.5,0-2.5-0.9-2.5-2.3c0-1.4,1-2.3,2.5-2.3C178.1,57,179,58,179,59.4z"/>
		<path class="st0" d="M176.7,70.6l-0.4,1.3c0.4,0.1,0.8,0.2,1.2,0.4l-1.3,1.4c-0.3-0.5-0.6-0.9-0.9-1.1c-0.3-0.2-0.6-0.3-1-0.3
			c-0.5,0-0.9,0.2-1.3,0.6s-0.5,0.9-0.5,1.6c0,0.5,0.1,0.9,0.2,1.2c0.2,0.4,0.4,0.6,0.6,0.8c0.3,0.2,0.6,0.3,1,0.3
			c0.3,0,0.5-0.1,0.8-0.2c0.3-0.1,0.5-0.3,0.8-0.6c0.3,0.6,0.7,1,1,1.3c0.4,0.3,0.8,0.4,1.2,0.4c0.4,0,0.7-0.1,1.1-0.4
			s0.6-0.6,0.7-1s0.3-0.9,0.3-1.5c0-1-0.3-1.8-0.8-2.5l0.8-0.9l-1.1-0.9l-0.8,0.9C177.9,71,177.4,70.7,176.7,70.6z M173.9,74.9
			c-0.1-0.1-0.2-0.3-0.2-0.6c0-0.2,0.1-0.4,0.2-0.5c0.1-0.1,0.3-0.2,0.4-0.2c0.2,0,0.3,0.1,0.5,0.2c0.2,0.1,0.3,0.4,0.5,0.8
			c-0.2,0.2-0.4,0.4-0.5,0.5c-0.1,0.1-0.3,0.1-0.4,0.1C174.2,75.2,174,75.1,173.9,74.9z M179,74.6c0,0.4-0.1,0.7-0.3,1
			c-0.2,0.2-0.4,0.4-0.7,0.4c-0.2,0-0.4-0.1-0.6-0.2c-0.2-0.1-0.4-0.4-0.6-0.7l1.7-1.8C178.8,73.6,179,74.1,179,74.6z"/>
	</g>
	<g>
		<path class="st0" d="M187.9,53.1c0-0.5-0.3-0.8-0.9-0.8h-0.9v2.1h0.4v-0.6h0.5c0,0,0.1,0,0.1,0l0.4,0.6h0.4l-0.5-0.7
			C187.7,53.7,187.9,53.5,187.9,53.1z M187,53.6h-0.5v-0.8h0.5c0.3,0,0.5,0.2,0.5,0.4C187.5,53.4,187.3,53.6,187,53.6z"/>
		<path class="st0" d="M186.9,51.4c-1.1,0-2.1,0.9-2.1,2.1c0,1.1,0.9,2.1,2.1,2.1c1.1,0,2.1-0.9,2.1-2.1
			C189,52.3,188,51.4,186.9,51.4z M186.9,55.2c-0.9,0-1.7-0.8-1.7-1.7c0-0.9,0.8-1.7,1.7-1.7c0.9,0,1.7,0.8,1.7,1.7
			C188.6,54.4,187.8,55.2,186.9,55.2z"/>
	</g>
</g>
</svg>
