<svg xmlns="http://www.w3.org/2000/svg" xmlns:xlink="http://www.w3.org/1999/xlink" width="500" zoomAndPan="magnify" viewBox="0 0 375 374.999991" height="500" preserveAspectRatio="xMidYMid meet" version="1.0"><path fill="#ffffff" d="M 46.164062 197.121094 L 29.835938 146.097656 L 13.800781 146.097656 L 37.125 210.53125 L 55.203125 210.53125 L 78.53125 146.097656 L 62.492188 146.097656 Z M 46.164062 197.121094 " fill-opacity="1" fill-rule="nonzero"/><path fill="#ffffff" d="M 87.859375 146.097656 L 103.3125 146.097656 L 103.3125 210.53125 L 87.859375 210.53125 Z M 87.859375 146.097656 " fill-opacity="1" fill-rule="nonzero"/><path fill="#ffffff" d="M 149.96875 172.335938 L 140.929688 170.589844 C 134.222656 169.421875 131.304688 167.089844 131.304688 163.300781 C 131.304688 158.632812 135.386719 155.425781 141.511719 155.425781 C 147.632812 155.425781 152.589844 159.507812 153.464844 165.632812 L 167.171875 162.425781 C 165.421875 151.34375 155.214844 143.765625 141.511719 143.765625 C 126.640625 143.765625 115.851562 151.929688 115.851562 164.464844 C 115.851562 174.671875 122.265625 180.210938 136.261719 183.125 L 145.300781 184.875 C 152.882812 186.332031 156.089844 188.664062 156.089844 192.746094 C 156.089844 197.703125 151.425781 201.203125 143.550781 201.203125 C 135.097656 201.203125 128.679688 196.246094 127.808594 188.375 L 113.8125 190.996094 C 115.269531 204.992188 127.222656 212.574219 143.261719 212.574219 C 159.878906 212.574219 171.542969 204.410156 171.542969 190.996094 C 171.253906 180.792969 164.546875 174.671875 149.96875 172.335938 Z M 149.96875 172.335938 " fill-opacity="1" fill-rule="nonzero"/><path fill="#ffffff" d="M 223.152344 185.457031 C 223.152344 193.914062 217.90625 199.746094 209.742188 199.746094 C 201.285156 199.746094 196.328125 193.914062 196.328125 185.457031 L 196.328125 146.097656 L 180.875 146.097656 L 180.875 185.75 C 180.875 202.367188 191.953125 212.863281 209.742188 212.863281 C 227.527344 212.863281 238.609375 202.367188 238.609375 185.75 L 238.609375 146.097656 L 223.152344 146.097656 Z M 223.152344 185.457031 " fill-opacity="1" fill-rule="nonzero"/><path fill="#ffffff" d="M 263.101562 146.679688 L 239.480469 211.113281 L 255.519531 211.113281 L 271.847656 160.382812 L 288.175781 211.113281 L 304.214844 211.113281 L 280.886719 146.679688 Z M 263.101562 146.679688 " fill-opacity="1" fill-rule="nonzero"/><path fill="#ffffff" d="M 324.625 146.097656 L 309.171875 146.097656 L 309.171875 210.53125 L 351.449219 210.53125 L 351.449219 197.410156 L 324.625 197.410156 Z M 324.625 146.097656 " fill-opacity="1" fill-rule="nonzero"/><path fill="#ffffff" d="M 329.871094 218.113281 L 323.75 218.113281 L 317.042969 225.984375 L 317.042969 218.113281 L 311.792969 218.113281 L 311.792969 239.105469 L 317.042969 239.105469 L 317.042969 232.109375 L 319.082031 229.773438 L 324.039062 239.105469 L 330.164062 239.105469 L 322.582031 225.984375 Z M 329.871094 218.113281 " fill-opacity="1" fill-rule="nonzero"/><path fill="#ffffff" d="M 340.078125 217.238281 C 333.078125 217.238281 328.414062 221.609375 328.414062 228.609375 C 328.414062 235.316406 333.078125 239.980469 340.078125 239.980469 C 347.074219 239.980469 351.742188 235.605469 351.742188 228.609375 C 351.742188 221.609375 347.074219 217.238281 340.078125 217.238281 Z M 340.078125 235.316406 C 335.996094 235.316406 333.371094 232.691406 333.371094 228.316406 C 333.371094 224.234375 335.996094 221.320312 340.078125 221.320312 C 344.160156 221.320312 346.785156 223.945312 346.785156 228.316406 C 346.492188 232.691406 344.160156 235.316406 340.078125 235.316406 Z M 340.078125 235.316406 " fill-opacity="1" fill-rule="nonzero"/><path fill="#ffffff" d="M 308.296875 228.898438 L 304.503906 227.734375 C 304.214844 228.898438 303.921875 230.066406 303.339844 230.941406 L 299.546875 227.441406 C 301.003906 226.566406 302.171875 225.984375 302.753906 225.109375 C 303.339844 224.234375 303.628906 223.359375 303.628906 222.195312 C 303.628906 220.738281 303.046875 219.570312 301.878906 218.695312 C 300.714844 217.820312 299.257812 217.238281 297.507812 217.238281 C 296.339844 217.238281 295.175781 217.53125 294.007812 217.820312 C 293.132812 218.113281 292.257812 218.988281 291.675781 219.570312 C 291.09375 220.445312 290.800781 221.320312 290.800781 222.195312 C 290.800781 223.070312 291.09375 223.652344 291.382812 224.527344 C 291.675781 225.109375 292.257812 225.984375 293.132812 226.859375 C 291.382812 227.734375 290.21875 228.609375 289.632812 229.773438 C 288.757812 230.648438 288.46875 231.816406 288.46875 233.273438 C 288.46875 234.441406 288.757812 235.316406 289.632812 236.1875 C 290.21875 237.0625 291.382812 237.648438 292.550781 238.230469 C 293.714844 238.8125 295.175781 239.105469 296.632812 239.105469 C 299.257812 239.105469 301.589844 238.230469 303.628906 236.773438 L 306.253906 239.105469 L 308.878906 236.1875 L 306.253906 233.855469 C 307.421875 232.398438 308.003906 230.648438 308.296875 228.898438 Z M 296.050781 221.027344 C 296.339844 220.738281 296.921875 220.445312 297.796875 220.445312 C 298.382812 220.445312 298.964844 220.738281 299.257812 221.027344 C 299.546875 221.320312 299.839844 221.902344 299.839844 222.195312 C 299.839844 222.777344 299.546875 223.070312 299.257812 223.652344 C 298.964844 223.945312 298.089844 224.527344 297.214844 225.109375 C 296.632812 224.527344 296.050781 223.945312 296.050781 223.652344 C 295.757812 223.359375 295.757812 222.777344 295.757812 222.484375 C 295.464844 221.609375 295.464844 221.320312 296.050781 221.027344 Z M 296.921875 235.316406 C 295.757812 235.316406 294.882812 235.023438 294.300781 234.730469 C 293.714844 234.148438 293.132812 233.566406 293.132812 232.691406 C 293.132812 232.109375 293.425781 231.523438 293.714844 230.941406 C 294.007812 230.359375 294.882812 229.773438 295.757812 229.484375 L 301.007812 234.148438 C 299.839844 234.730469 298.382812 235.316406 296.921875 235.316406 Z M 296.921875 235.316406 " fill-opacity="1" fill-rule="nonzero"/><path fill="#ffffff" d="M 367.484375 214.90625 C 367.484375 213.449219 366.613281 212.574219 364.863281 212.574219 L 362.238281 212.574219 L 362.238281 218.695312 L 363.402344 218.695312 L 363.402344 216.945312 L 364.863281 216.945312 C 364.863281 216.945312 365.152344 216.945312 365.152344 216.945312 L 366.320312 218.695312 L 367.484375 218.695312 L 366.027344 216.65625 C 366.902344 216.363281 367.484375 215.78125 367.484375 214.90625 Z M 364.863281 216.070312 L 363.402344 216.070312 L 363.402344 213.738281 L 364.863281 213.738281 C 365.738281 213.738281 366.320312 214.320312 366.320312 214.90625 C 366.320312 215.488281 365.738281 216.070312 364.863281 216.070312 Z M 364.863281 216.070312 " fill-opacity="1" fill-rule="nonzero"/><path fill="#ffffff" d="M 364.570312 209.65625 C 361.363281 209.65625 358.445312 212.28125 358.445312 215.78125 C 358.445312 218.988281 361.070312 221.902344 364.570312 221.902344 C 367.777344 221.902344 370.695312 219.277344 370.695312 215.78125 C 370.402344 212.574219 367.777344 209.65625 364.570312 209.65625 Z M 364.570312 220.738281 C 361.945312 220.738281 359.613281 218.402344 359.613281 215.78125 C 359.613281 213.15625 361.945312 210.824219 364.570312 210.824219 C 367.195312 210.824219 369.527344 213.15625 369.527344 215.78125 C 369.527344 218.402344 367.195312 220.738281 364.570312 220.738281 Z M 364.570312 220.738281 " fill-opacity="1" fill-rule="nonzero"/></svg>