<svg xmlns="http://www.w3.org/2000/svg" xmlns:xlink="http://www.w3.org/1999/xlink" width="100" zoomAndPan="magnify" viewBox="0 0 75 52.499999" height="70" preserveAspectRatio="xMidYMid meet" version="1.0"><path fill="#FFFFFF" d="M 53.027344 17.328125 L 53.027344 21.832031 L 59.054688 26.980469 L 53.027344 26.980469 L 53.027344 30.839844 L 68.960938 30.839844 L 68.960938 26.980469 L 63.792969 26.980469 L 62.070312 25.480469 L 68.960938 21.617188 L 68.960938 17.113281 L 59.054688 22.691406 Z M 53.027344 17.328125 " fill-opacity="1" fill-rule="nonzero"/><path fill="#FFFFFF" d="M 52.378906 9.609375 C 52.378906 14.96875 55.824219 18.402344 60.992188 18.402344 C 66.160156 18.402344 69.609375 14.96875 69.609375 9.609375 C 69.609375 4.246094 66.160156 0.8125 60.992188 0.8125 C 55.824219 0.8125 52.378906 4.246094 52.378906 9.609375 Z M 66.160156 9.609375 C 66.160156 12.609375 64.007812 14.539062 60.777344 14.539062 C 57.546875 14.539062 55.394531 12.609375 55.394531 9.609375 C 55.394531 6.605469 57.546875 4.675781 60.777344 4.675781 C 64.222656 4.460938 66.160156 6.605469 66.160156 9.609375 Z M 66.160156 9.609375 " fill-opacity="1" fill-rule="nonzero"/><path fill="#FFFFFF" d="M 61.210938 33.628906 L 60.347656 36.417969 C 61.210938 36.632812 62.070312 36.847656 62.933594 37.277344 L 60.132812 40.277344 C 59.488281 39.207031 58.839844 38.347656 58.195312 37.917969 C 57.546875 37.492188 56.902344 37.277344 56.042969 37.277344 C 54.964844 37.277344 54.101562 37.703125 53.242188 38.5625 C 52.378906 39.421875 52.164062 40.492188 52.164062 41.996094 C 52.164062 43.066406 52.378906 43.925781 52.59375 44.566406 C 53.027344 45.425781 53.457031 45.855469 53.886719 46.285156 C 54.535156 46.714844 55.179688 46.925781 56.042969 46.925781 C 56.6875 46.925781 57.117188 46.714844 57.765625 46.5 C 58.410156 46.285156 58.839844 45.855469 59.488281 45.210938 C 60.132812 46.5 60.992188 47.355469 61.640625 48 C 62.5 48.644531 63.363281 48.859375 64.222656 48.859375 C 65.085938 48.859375 65.730469 48.644531 66.59375 48 C 67.453125 47.355469 67.886719 46.714844 68.101562 45.855469 C 68.316406 44.996094 68.746094 43.925781 68.746094 42.636719 C 68.746094 40.492188 68.101562 38.777344 67.023438 37.277344 L 68.746094 35.34375 L 66.378906 33.414062 L 64.65625 35.34375 C 63.792969 34.488281 62.714844 33.84375 61.210938 33.628906 Z M 55.179688 42.851562 C 54.964844 42.636719 54.75 42.207031 54.75 41.566406 C 54.75 41.136719 54.964844 40.707031 55.179688 40.492188 C 55.394531 40.277344 55.824219 40.0625 56.042969 40.0625 C 56.472656 40.0625 56.6875 40.277344 57.117188 40.492188 C 57.546875 40.707031 57.765625 41.351562 58.195312 42.207031 C 57.765625 42.636719 57.332031 43.066406 57.117188 43.28125 C 56.902344 43.496094 56.472656 43.496094 56.257812 43.496094 C 55.824219 43.496094 55.394531 43.28125 55.179688 42.851562 Z M 66.160156 42.207031 C 66.160156 43.066406 65.945312 43.710938 65.515625 44.355469 C 65.085938 44.78125 64.65625 45.210938 64.007812 45.210938 C 63.578125 45.210938 63.148438 44.996094 62.714844 44.78125 C 62.285156 44.566406 61.855469 43.925781 61.425781 43.28125 L 65.085938 39.421875 C 65.730469 40.0625 66.160156 41.136719 66.160156 42.207031 Z M 66.160156 42.207031 " fill-opacity="1" fill-rule="nonzero"/><path fill="#FFFFFF" d="M 27.769531 40.054688 L 15.078125 0.8125 L 2.617188 0.8125 L 20.746094 50.652344 L 34.570312 50.652344 L 52.925781 0.8125 L 40.460938 0.8125 Z M 27.769531 40.054688 " fill-opacity="1" fill-rule="nonzero"/></svg>