<svg width="78" height="78" viewBox="0 0 78 78" fill="none" xmlns="http://www.w3.org/2000/svg">
<g id="gridicons:phone">
<rect x="0.5" y="0.5" width="77" height="77" rx="9.5" fill="#579EB0"/>
<path id="Vector" d="M48.75 14H28.95C27.6372 14 26.3781 14.5215 25.4498 15.4498C24.5215 16.3781 24 17.6372 24 18.95V58.55C24 59.8628 24.5215 61.1219 25.4498 62.0502C26.3781 62.9785 27.6372 63.5 28.95 63.5H48.75C50.0628 63.5 51.3219 62.9785 52.2502 62.0502C53.1785 61.1219 53.7 59.8628 53.7 58.55V18.95C53.7 17.6372 53.1785 16.3781 52.2502 15.4498C51.3219 14.5215 50.0628 14 48.75 14ZM41.325 61.025H36.375V58.55H41.325V61.025ZM48.75 56.075H28.95V21.425H48.75V56.075Z" fill="white"/>
<rect x="0.5" y="0.5" width="77" height="77" rx="9.5" stroke="#474747"/>
</g>
</svg>
