<svg xmlns="http://www.w3.org/2000/svg" width="138" height="139" viewBox="0 0 138 139" fill="none">
  <path d="M47.3065 70.7954C44.2984 72.1844 40.4992 72.6578 36.7713 72.3115C26.3983 71.3513 18.2275 62.8355 18.2275 52.2498C18.2275 46.9123 20.3478 41.7934 24.122 38.0192C27.8962 34.2451 33.0151 32.1248 38.3525 32.1248C44.2594 32.1248 49.9239 34.7073 53.6656 38.404L47.3065 70.7954ZM47.3065 70.7954C47.3284 70.6749 47.3497 70.5552 47.3706 70.4365L47.863 70.5233L48.0929 70.9673C47.9805 71.0255 47.8669 71.0823 47.7523 71.1378L47.3065 70.7954ZM111.284 39.2466L111.284 39.2468C117.114 45.4396 120.25 52.3703 120.25 63.6865C120.25 83.4389 106.471 101.222 86.2662 110.139L81.6556 103.025C91.0312 97.8601 96.6978 91.9453 100.21 86.2384C103.779 80.4391 105.106 74.8821 105.861 70.6103L106.037 69.6142L105.139 70.0792C102.159 71.6222 98.2184 72.1755 94.3175 71.8136L94.3174 71.8136C84.1901 70.8761 76.2218 62.5659 76.2218 52.2498C76.2218 47.0449 78.2894 42.0532 81.9698 38.3728C85.6502 34.6924 90.6419 32.6248 95.8468 32.6248C101.873 32.6248 107.648 35.3809 111.284 39.2466ZM53.5107 38.9568L53.7837 39.2468C59.6143 45.4396 62.75 52.3703 62.75 63.6865C62.75 83.4389 48.9705 101.222 28.7662 110.139L24.1556 103.025C33.5312 97.8601 39.1978 91.9453 42.7092 86.2384C46.2776 80.439 47.603 74.8819 48.3555 70.61L48.5308 69.6145L47.6332 70.0792C44.6527 71.6222 40.7126 72.1755 36.8175 71.8137L36.8174 71.8136C26.6903 70.8762 18.7275 62.566 18.7275 52.2498C18.7275 47.0449 20.7952 42.0532 24.4756 38.3728C28.156 34.6924 33.1477 32.6248 38.3525 32.6248C44.2267 32.6248 49.8628 35.2439 53.5107 38.9568Z" fill="#579EB0" stroke="white"/>
</svg>