<svg width="69" height="69" viewBox="0 0 69 69" fill="none" xmlns="http://www.w3.org/2000/svg">
<circle cx="34.3285" cy="34.3114" r="33.9369" fill="#EDEDED"/>
<mask id="mask0_610_1045" style="mask-type:luminance" maskUnits="userSpaceOnUse" x="14" y="13" width="41" height="42">
<path d="M51.4728 44.3416L39.7831 19.2719C39.1187 17.8471 37.9155 16.7447 36.4382 16.207C34.9609 15.6694 33.3305 15.7406 31.9057 16.4051C30.4809 17.0695 29.3785 18.2727 28.8408 19.75C28.3032 21.2273 28.3744 22.8577 29.0389 24.2825L40.7295 49.3512C41.3939 50.776 42.597 51.8785 44.0742 52.4162C45.5514 52.954 47.1817 52.8829 48.6065 52.2185C50.0313 51.5542 51.1338 50.3511 51.6715 48.8739C52.2093 47.3967 52.1372 45.7664 51.4728 44.3416Z" fill="white" stroke="white" stroke-width="3.95156"/>
<path d="M33.7727 36.8168L27.9264 49.3512C27.5974 50.0567 27.1327 50.6905 26.5588 51.2163C25.9849 51.7422 25.313 52.1499 24.5815 52.4162C23.85 52.6824 23.0732 52.8019 22.2955 52.7679C21.5178 52.7339 20.7544 52.547 20.049 52.218C18.6244 51.5536 17.5221 50.3506 16.9844 48.8735C16.4468 47.3964 16.5179 45.7662 17.1821 44.3416L28.7701 19.4932" stroke="white" stroke-width="3.95156" stroke-linecap="round"/>
<path d="M20.0505 52.2176C23.0173 53.6011 26.544 52.3175 27.9275 49.3506C29.3109 46.3838 28.0273 42.8571 25.0605 41.4736C22.0936 40.0902 18.5669 41.3738 17.1835 44.3406C15.8 47.3075 17.0836 50.8341 20.0505 52.2176Z" fill="white" stroke="white" stroke-width="3.95156"/>
</mask>
<g mask="url(#mask0_610_1045)">
<path d="M10.6191 10.6022H58.0379V58.0209H10.6191V10.6022Z" fill="#474747"/>
</g>
</svg>
